<?xml version="1.0" encoding="iso-8859-1"?>
<!-- Uploaded to: SVG Repo, www.svgrepo.com, Generator: SVG Repo Mixer Tools -->
<svg height="800px" width="800px" version="1.1" id="Layer_1" xmlns="http://www.w3.org/2000/svg" xmlns:xlink="http://www.w3.org/1999/xlink" 
	 viewBox="0 0 512 512" xml:space="preserve">
<path style="fill:#5B7F81;" d="M147.574,491.213H58.934c-27.602,0-50.181-22.358-50.181-49.679V70.465
	c0-27.321,22.586-49.679,50.181-49.679h201.442h81.101c27.596,0,50.181,22.358,50.181,49.679v371.069
	c0,27.321-22.579,49.679-50.181,49.679h-88.639H147.574z"/>
<path style="fill:#415E5C;" d="M233.12,447.641h-65.829c-12.032,0-21.786-9.754-21.786-21.786l0,0
	c0-12.032,9.754-21.786,21.786-21.786h65.829c12.032,0,21.786,9.754,21.786,21.786l0,0
	C254.906,437.886,245.152,447.641,233.12,447.641z"/>
<path style="fill:#B1D7C5;" d="M118.504,425.638H77.048V84.028h188.021h58.291v341.61h-41.454H118.504z"/>
<path style="fill:#97BAA8;" d="M145.515,425.638c0.118-11.931,9.858-21.57,21.869-21.57h65.641c12.011,0,21.751,9.638,21.869,21.57
	H145.515z"/>
<path style="fill:#C13421;" d="M464.17,241.433v-18.254h-91.267h-90.646v123.482c0,49.529,40.926,90.053,90.957,90.053
	c50.027,0,90.957-40.523,90.957-90.053L464.17,241.433L464.17,241.433z"/>
<path style="fill:#FF4328;" d="M282.256,346.661V223.179h86.887v123.482c0,32.319-17.433,60.796-43.445,76.688
	C299.688,407.456,282.256,378.98,282.256,346.661z"/>
<path d="M202.326,275.22c0,4.813-3.919,8.715-8.752,8.715h-56.895c-4.833,0-8.752-3.901-8.752-8.715
	c0-4.813,3.919-8.715,8.752-8.715h56.895C198.408,266.506,202.326,270.408,202.326,275.22z M223.356,140.278h-86.678
	c-4.833,0-8.752,3.901-8.752,8.715c0,4.813,3.919,8.714,8.752,8.714h86.678c4.834,0,8.752-3.901,8.752-8.714
	C232.108,144.18,228.189,140.278,223.356,140.278z M136.678,220.82h41.1c4.833,0,8.752-3.901,8.752-8.714
	c0-4.813-3.919-8.715-8.752-8.715h-41.1c-4.833,0-8.752,3.901-8.752,8.715C127.926,216.919,131.844,220.82,136.678,220.82z
	 M201.234,416.921h-2.057c-4.834,0-8.752,3.901-8.752,8.714s3.918,8.715,8.752,8.715h2.057c4.834,0,8.752-3.901,8.752-8.715
	C209.986,420.822,206.067,416.921,201.234,416.921z M446.036,106.389c-16.275,24.926-19.953,67.351,0.511,90.778
	c1.731,1.981,4.162,2.995,6.607,2.995c2.036,0,4.083-0.703,5.74-2.14c3.647-3.158,4.033-8.662,0.86-12.295
	c-14.622-16.738-11.555-50.678,0.956-69.838c15.731-24.079,19.209-67-0.955-90.089c-3.171-3.631-8.699-4.016-12.347-0.858
	c-3.649,3.157-4.034,8.662-0.862,12.293C459.68,52.278,459.433,85.884,446.036,106.389z M400.405,441.732
	c-0.054,15.884-6.535,30.292-16.991,40.805h119.834c4.833,0,8.752,3.901,8.752,8.715c0,4.813-3.919,8.715-8.752,8.715H341.477
	H238.496H58.934C26.438,499.965,0,473.753,0,441.534V70.464c0-32.219,26.438-58.43,58.934-58.43h282.543
	c32.496,0,58.934,26.212,58.934,58.43v57.67c2.319-7.976,5.632-15.426,9.761-21.746c13.393-20.507,13.64-54.113,0.51-69.151
	c-3.172-3.632-2.785-9.136,0.862-12.293c3.65-3.158,9.177-2.773,12.347,0.858c20.158,23.085,16.683,66.005,0.955,90.088
	c-12.514,19.16-15.581,53.097-0.956,69.839c3.172,3.631,2.788,9.135-0.86,12.295c-1.657,1.435-3.703,2.14-5.739,2.14
	c-2.445,0-4.877-1.014-6.608-2.995c-4.606-5.273-7.98-11.513-10.272-18.294v35.553h63.759c4.833,0,8.752,3.919,8.752,8.752v18.254
	h19.386c10.858,0,19.692,8.796,19.692,19.608v58.014c0,10.812-8.834,19.608-19.692,19.608h-19.386v8.001
	C472.922,391.804,442.21,429.973,400.405,441.732z M472.922,258.861v62.37h16.996c2.525,0,4.578-0.977,4.578-2.178V261.04
	c0-1.201-2.053-2.178-4.578-2.178H472.922L472.922,258.861z M455.417,231.931H291.009v114.73c0,44.831,36.876,81.302,82.204,81.302
	s82.206-36.471,82.206-81.302v-114.73H455.417z M303.146,416.886c-18.29-17.922-29.641-42.783-29.641-70.225V223.179
	c0-4.833,3.919-8.752,8.752-8.752h32.352V92.78H85.802v324.106h52.297c3.841-12.475,15.474-21.57,29.193-21.57h65.829
	c13.719,0,25.352,9.095,29.193,21.57H303.146z M233.12,412.82h-65.829c-7.187,0-13.034,5.848-13.034,13.034
	c0,7.187,5.848,13.034,13.034,13.034h65.829c7.187,0,13.034-5.848,13.034-13.034C246.154,418.668,240.306,412.82,233.12,412.82z
	 M382.745,445.013c-3.139,0.296-6.318,0.454-9.533,0.454c-16.926,0-32.876-4.207-46.853-11.611
	c-0.935,0.342-1.944,0.534-2.998,0.534h-60.926c-3.703,12.696-15.44,22.003-29.315,22.003h-65.829
	c-13.877,0-25.612-9.307-29.315-22.003H77.049c-4.833,0-8.752-3.919-8.752-8.752V84.028c0-4.833,3.919-8.752,8.752-8.752h246.313
	c4.833,0,8.752,3.919,8.752,8.752v130.399h50.792V70.464c0-22.567-18.585-40.926-41.429-40.926H58.934
	c-22.844,0-41.429,18.359-41.429,40.926v371.07c0,22.567,18.585,40.927,41.429,40.927h282.543
	C363.134,482.461,380.951,465.957,382.745,445.013z"/>
</svg>